<?xml version="1.0" encoding="UTF-8" standalone="no"?>
<!-- Generator: Adobe Illustrator 15.1.0, SVG Export Plug-In . SVG Version: 6.00 Build 0)  -->

<svg
   xmlns:dc="http://purl.org/dc/elements/1.1/"
   xmlns:cc="http://creativecommons.org/ns#"
   xmlns:rdf="http://www.w3.org/1999/02/22-rdf-syntax-ns#"
   xmlns:svg="http://www.w3.org/2000/svg"
   xmlns="http://www.w3.org/2000/svg"
   xmlns:sodipodi="http://sodipodi.sourceforge.net/DTD/sodipodi-0.dtd"
   xmlns:inkscape="http://www.inkscape.org/namespaces/inkscape"
   version="1.1"
   x="0px"
   y="0px"
   width="24px"
   height="24px"
   viewBox="0 0 24 24"
   style="enable-background:new 0 0 24 24;"
   xml:space="preserve"
   id="svg1524"
   sodipodi:docname="copy-link.svg"
   inkscape:version="0.92.4 (5da689c313, 2019-01-14)"><metadata
   id="metadata1530"><rdf:RDF><cc:Work
       rdf:about=""><dc:format>image/svg+xml</dc:format><dc:type
         rdf:resource="http://purl.org/dc/dcmitype/StillImage" /></cc:Work></rdf:RDF></metadata><defs
   id="defs1528" /><sodipodi:namedview
   pagecolor="#ffffff"
   bordercolor="#666666"
   borderopacity="1"
   objecttolerance="10"
   gridtolerance="10"
   guidetolerance="10"
   inkscape:pageopacity="0"
   inkscape:pageshadow="2"
   inkscape:window-width="1920"
   inkscape:window-height="1016"
   id="namedview1526"
   showgrid="false"
   inkscape:zoom="9.8333333"
   inkscape:cx="-11.79661"
   inkscape:cy="11.186441"
   inkscape:window-x="0"
   inkscape:window-y="27"
   inkscape:window-maximized="1"
   inkscape:current-layer="svg1524"
   inkscape:pagecheckerboard="true" />
<g
   id="g2080"
   style="fill:#ffffff"
   transform="matrix(1.178034,0,0,1.178034,-2.136763,-2.136407)"><g
     style="opacity:0.75;fill:#ffffff"
     id="Icons">
	<g
   id="link"
   style="fill:#ffffff">
		<path
   inkscape:connector-curvature="0"
   d="m 19.188,12.001 c 0,1.1 -0.891,2.015 -1.988,2.015 L 13.005,14.001 C 13.543,15.089 13.968,16 15.002,16 h 3 C 19.658,16 21,13.657 21,12 21,10.343 19.658,8 18.002,8 h -3 c -1.034,0 -1.459,0.911 -1.998,1.999 l 4.195,-0.015 c 1.098,0 1.989,0.917 1.989,2.017 z"
   id="right"
   style="fill:#ffffff" />
		<path
   inkscape:connector-curvature="0"
   d="m 8,12 c 0,0.535 0.42,1 0.938,1 h 6.109 c 0.518,0 0.938,-0.465 0.938,-1 0,-0.534 -0.42,-1 -0.938,-1 H 8.938 C 8.42,11 8,11.466 8,12 Z"
   id="center"
   style="fill:#ffffff" />
		<path
   inkscape:connector-curvature="0"
   d="m 4.816,11.999 c 0,-1.1 0.891,-2.015 1.988,-2.015 L 11,9.999 C 10.461,8.911 10.036,8 9.002,8 h -3 c -1.656,0 -2.998,2.343 -2.998,4 0,1.657 1.342,4 2.998,4 h 3 c 1.034,0 1.459,-0.911 1.998,-1.999 l -4.195,0.015 c -1.098,0 -1.989,-0.917 -1.989,-2.017 z"
   id="left"
   style="fill:#ffffff" />
	</g>
</g></g>
<g
   id="Guides"
   style="display:none;">
</g>
</svg>