<?xml version="1.0" encoding="UTF-8" standalone="no"?>
<svg
   xmlns:dc="http://purl.org/dc/elements/1.1/"
   xmlns:cc="http://creativecommons.org/ns#"
   xmlns:rdf="http://www.w3.org/1999/02/22-rdf-syntax-ns#"
   xmlns:svg="http://www.w3.org/2000/svg"
   xmlns="http://www.w3.org/2000/svg"
   xmlns:sodipodi="http://sodipodi.sourceforge.net/DTD/sodipodi-0.dtd"
   xmlns:inkscape="http://www.inkscape.org/namespaces/inkscape"
   version="1.1"
   width="100"
   height="100"
   id="svg883"
   sodipodi:docname="edit.svg"
   inkscape:version="0.92.4 (5da689c313, 2019-01-14)">
  <metadata
     id="metadata889">
    <rdf:RDF>
      <cc:Work
         rdf:about="">
        <dc:format>image/svg+xml</dc:format>
        <dc:type
           rdf:resource="http://purl.org/dc/dcmitype/StillImage" />
        <dc:title />
      </cc:Work>
    </rdf:RDF>
  </metadata>
  <defs
     id="defs887" />
  <sodipodi:namedview
     pagecolor="#ffffff"
     bordercolor="#666666"
     borderopacity="1"
     objecttolerance="10"
     gridtolerance="10"
     guidetolerance="10"
     inkscape:pageopacity="0"
     inkscape:pageshadow="2"
     inkscape:window-width="1920"
     inkscape:window-height="1016"
     id="namedview885"
     showgrid="false"
     inkscape:zoom="8.43"
     inkscape:cx="50"
     inkscape:cy="40.62309"
     inkscape:window-x="0"
     inkscape:window-y="27"
     inkscape:window-maximized="1"
     inkscape:current-layer="svg883"
     inkscape:pagecheckerboard="true" />
  <path
     inkscape:connector-curvature="0"
     d="M 88.606397,21.16724 77.355767,9.9278303 c -1.408152,-1.408152 -3.693734,-1.408152 -5.101886,0 L 62.086013,20.10804 22.784546,59.408385 c -0.32539,0.32539 -0.589068,0.710247 -0.769715,1.13101 l -8.410763,19.650173 c -0.59019,1.359904 -0.277143,2.936361 0.758495,3.970876 0.697904,0.697905 1.612362,1.0592 2.551504,1.0592 0.481352,0 0.962705,-0.0965 1.431715,-0.288363 l 19.650172,-8.410763 c 0.420763,-0.180647 0.806742,-0.445447 1.13101,-0.769715 L 78.427309,36.450458 88.607519,26.282591 c 1.40703,-1.421617 1.40703,-3.707199 -0.0011,-5.115351 z m -64.823241,53.583831 3.285314,-7.65339 4.368076,4.368076 z M 35.72047,68.95128 29.584069,62.814879 64.985348,27.412478 l 6.137523,6.136401 z m 38.80665,-38.807772 -6.136401,-6.136401 6.413544,-6.413544 6.136401,6.125181 z"
     id="path881"
     style="fill:#ffffff;stroke-width:1.12203348" />
</svg>
