<?xml version="1.0" encoding="UTF-8" standalone="no"?>
<!-- Svg Vector Icons : http://www.onlinewebfonts.com/icon -->

<svg
   xmlns:dc="http://purl.org/dc/elements/1.1/"
   xmlns:cc="http://creativecommons.org/ns#"
   xmlns:rdf="http://www.w3.org/1999/02/22-rdf-syntax-ns#"
   xmlns:svg="http://www.w3.org/2000/svg"
   xmlns="http://www.w3.org/2000/svg"
   xmlns:sodipodi="http://sodipodi.sourceforge.net/DTD/sodipodi-0.dtd"
   xmlns:inkscape="http://www.inkscape.org/namespaces/inkscape"
   version="1.1"
   x="0px"
   y="0px"
   viewBox="0 0 1000 1000"
   enable-background="new 0 0 1000 1000"
   xml:space="preserve"
   id="svg1537"
   sodipodi:docname="tags.svg"
   inkscape:version="0.92.4 (5da689c313, 2019-01-14)"><defs
   id="defs1541" /><sodipodi:namedview
   pagecolor="#ffffff"
   bordercolor="#666666"
   borderopacity="1"
   objecttolerance="10"
   gridtolerance="10"
   guidetolerance="10"
   inkscape:pageopacity="0"
   inkscape:pageshadow="2"
   inkscape:window-width="1483"
   inkscape:window-height="833"
   id="namedview1539"
   showgrid="false"
   inkscape:pagecheckerboard="true"
   inkscape:zoom="0.236"
   inkscape:cx="500"
   inkscape:cy="500"
   inkscape:window-x="16"
   inkscape:window-y="114"
   inkscape:window-maximized="0"
   inkscape:current-layer="svg1537" />
<metadata
   id="metadata1525"> Svg Vector Icons : http://www.onlinewebfonts.com/icon <rdf:RDF><cc:Work
     rdf:about=""><dc:format>image/svg+xml</dc:format><dc:type
       rdf:resource="http://purl.org/dc/dcmitype/StillImage" /><dc:title></dc:title></cc:Work></rdf:RDF></metadata>
<g
   id="g2095"
   style="fill:#ffffff"><path
     style="stroke-width:0.1;fill:#ffffff"
     inkscape:connector-curvature="0"
     id="path1527"
     d="m 195.39,11 c -23.2,3.97 -46.6,22.36 -56.84,44.72 -2.93,6.48 -6.06,18.81 -7.31,28.63 C 130.2,93.96 113.69,267 94.88,468.68 59.13,851.96 59.55,843.61 67.49,862.62 c 8.15,19.23 26.75,36.78 46.6,43.68 7.31,2.51 152.98,17.97 169.7,17.97 2.51,0 5.02,1.67 5.85,3.76 10.87,31.97 32.39,51.41 63.53,56.85 12.33,2.09 16.93,1.67 62.49,-7.11 26.96,-5.22 54.34,-10.66 60.82,-11.91 11.49,-2.3 11.7,-2.3 18.81,4.18 16.3,15.04 42.01,22.78 62.91,19.02 11.7,-2.3 329.36,-135.63 343.57,-144.41 9.82,-6.06 23.62,-21.94 28.21,-32.39 5.85,-13.17 8.36,-30.09 6.06,-43.47 C 933.95,755.21 652.24,91.26 643.88,79.76 633.01,65.13 621.73,58.03 596.65,49.25 583.69,44.86 559.24,42.15 404.17,27.73 306.57,18.53 221.93,10.8 216.08,10.17 210.44,9.75 201.03,10.16 195.39,11 Z m 189.76,74.19 c 91.54,8.57 172.62,17.14 180.36,18.81 15.46,3.55 19.22,7.1 19.43,17.97 0,3.97 -12.33,137.51 -27.17,296.76 -15.05,159.04 -30.51,325.39 -34.69,369.7 -4.18,44.3 -8.57,82.76 -10.03,85.69 -1.25,2.71 -4.81,6.48 -7.94,8.15 -5.23,2.92 -20.48,1.88 -180.77,-13.17 -96.34,-8.99 -179.1,-16.72 -183.91,-17.35 -12.54,-1.67 -19.44,-8.99 -19.44,-20.27 0,-7.31 31.56,-346.71 61.65,-664.37 3.97,-42.22 7.31,-78.79 7.31,-81.09 0,-2.3 2.72,-7.11 6.06,-10.45 4.81,-4.6 8.15,-6.06 14.63,-6.06 4.6,0.01 83.18,7.11 174.51,15.68 z M 679.2,584.67 c 27.38,140.02 49.95,256.43 49.95,258.52 0,1.88 -2.09,6.06 -4.81,9.19 -4.6,5.22 -9.62,6.48 -70.64,18.6 -36.16,7.11 -69.18,13.58 -73.56,14.42 -7.94,1.46 -8.15,1.46 -6.9,-4.39 0.63,-3.13 12.54,-128.11 26.33,-277.53 14,-149.43 25.92,-273.98 26.54,-276.91 1.68,-6.48 -5.64,-41.59 53.09,258.1 z m 108.25,-21.95 c 52.87,124.77 90.07,214.84 90.07,218.6 0,3.97 -1.67,8.15 -4.39,10.45 -2.3,2.09 -22.36,11.7 -44.31,21.11 -34.9,14.84 -40.33,16.51 -41.59,13.58 -0.83,-1.88 -22.36,-110.34 -47.65,-240.75 -25.5,-130.41 -46.81,-239.08 -47.23,-241.38 -2.29,-10.03 9.21,16.72 95.1,218.39 z" /><path
     style="stroke-width:0.1;fill:#ffffff"
     inkscape:connector-curvature="0"
     id="path1529"
     d="m 365.51,140.36 c -25.29,8.36 -39.92,27.8 -39.92,53.29 0,16.3 5.64,29.47 17.14,39.71 11.08,10.03 21.52,14.21 36.36,14.21 21.32,0.21 38.04,-9.61 48.28,-28.01 11.49,-20.9 6.69,-51.41 -10.45,-65.83 -14.22,-11.9 -37.41,-17.96 -51.41,-13.37 z m 28.63,32.6 c 6.9,4.6 11.7,16.72 10.03,25.29 -0.63,3.76 -3.97,9.82 -7.52,13.37 -5.43,5.22 -7.94,6.27 -16.93,6.27 -9.2,0 -11.28,-0.84 -17.55,-7.1 -5.85,-5.85 -7.11,-8.78 -7.11,-15.67 0,-4.81 1.46,-11.49 2.93,-14.63 6.26,-11.91 23.82,-15.47 36.15,-7.53 z" /></g>
</svg>